  0
SECTION
  2
HEADER
  9
$ACADVER
  1
AC1009
  9
$DWGCODEPAGE
  3
ansi_1252
  9
$INSBASE
 10
0.0
 20
0.0
 30
0.0
  9
$EXTMIN
 10
0.0
 20
0.0
 30
0.0
  9
$EXTMAX
 10
11.0
 20
8.5
 30
0.0
  9
$LIMMIN
 10
0.0
 20
0.0
  9
$LIMMAX
 10
11.0
 20
8.5
  9
$ORTHOMODE
 70
     0
  9
$REGENMODE
 70
     1
  9
$FILLMODE
 70
     1
  9
$QTEXTMODE
 70
     0
  9
$MIRRTEXT
 70
     1
  9
$DRAGMODE
 70
     2
  9
$LTSCALE
 40
1.0
  9
$OSMODE
 70
    37
  9
$ATTMODE
 70
     1
  9
$TEXTSIZE
 40
0.125
  9
$TRACEWID
 40
0.05
  9
$TEXTSTYLE
  7
STANDARD
  9
$CLAYER
  8
0
  9
$CELTYPE
  6
BYLAYER
  9
$CECOLOR
 62
   256
  9
$DIMSCALE
 40
1.0
  9
$DIMASZ
 40
0.13
  9
$DIMEXO
 40
0.05
  9
$DIMDLI
 40
0.38
  9
$DIMRND
 40
0.0
  9
$DIMDLE
 40
0.0
  9
$DIMEXE
 40
0.125
  9
$DIMTP
 40
0.0
  9
$DIMTM
 40
0.0
  9
$DIMTXT
 40
0.125
  9
$DIMCEN
 40
0.09
  9
$DIMTSZ
 40
0.0
  9
$DIMTOL
 70
     0
  9
$DIMLIM
 70
     0
  9
$DIMTIH
 70
     1
  9
$DIMTOH
 70
     1
  9
$DIMSE1
 70
     0
  9
$DIMSE2
 70
     0
  9
$DIMTAD
 70
     0
  9
$DIMZIN
 70
     1
  9
$DIMBLK
  1

  9
$DIMASO
 70
     1
  9
$DIMSHO
 70
     1
  9
$DIMPOST
  1

  9
$DIMAPOST
  1

  9
$DIMALT
 70
     0
  9
$DIMALTD
 70
     2
  9
$DIMALTF
 40
25.4
  9
$DIMLFAC
 40
2.0
  9
$DIMTOFL
 70
     0
  9
$DIMTVP
 40
0.0
  9
$DIMTIX
 70
     0
  9
$DIMSOXD
 70
     0
  9
$DIMSAH
 70
     0
  9
$DIMBLK1
  1

  9
$DIMBLK2
  1

  9
$DIMSTYLE
  2
STANDARD
  9
$DIMCLRD
 70
     0
  9
$DIMCLRE
 70
     0
  9
$DIMCLRT
 70
     0
  9
$DIMTFAC
 40
1.0
  9
$DIMGAP
 40
0.06
  9
$LUNITS
 70
     2
  9
$LUPREC
 70
     2
  9
$SKETCHINC
 40
0.1
  9
$FILLETRAD
 40
0.0
  9
$AUNITS
 70
     0
  9
$AUPREC
 70
     2
  9
$MENU
  1
.
  9
$ELEVATION
 40
0.0
  9
$PELEVATION
 40
0.0
  9
$THICKNESS
 40
0.0
  9
$LIMCHECK
 70
     0
  9
$CHAMFERA
 40
0.0
  9
$CHAMFERB
 40
0.0
  9
$SKPOLY
 70
     0
  9
$TDCREATE
 40
2461120.614710567
  9
$TDUPDATE
 40
2461120.614711053
  9
$TDINDWG
 40
0.0000000116
  9
$TDUSRTIMER
 40
0.0000000116
  9
$USRTIMER
 70
     1
  9
$ANGBASE
 50
0.0
  9
$ANGDIR
 70
     0
  9
$PDMODE
 70
     0
  9
$PDSIZE
 40
-1.0
  9
$PLINEWID
 40
0.0
  9
$COORDS
 70
     1
  9
$SPLFRAME
 70
     0
  9
$SPLINETYPE
 70
     6
  9
$SPLINESEGS
 70
     8
  9
$ATTDIA
 70
     0
  9
$ATTREQ
 70
     1
  9
$HANDLING
 70
     1
  9
$HANDSEED
  5
20A
  9
$SURFTAB1
 70
     6
  9
$SURFTAB2
 70
     6
  9
$SURFTYPE
 70
     6
  9
$SURFU
 70
     6
  9
$SURFV
 70
     6
  9
$UCSNAME
  2

  9
$UCSORG
 10
0.0
 20
0.0
 30
0.0
  9
$UCSXDIR
 10
1.0
 20
0.0
 30
0.0
  9
$UCSYDIR
 10
0.0
 20
1.0
 30
0.0
  9
$PUCSNAME
  2

  9
$PUCSORG
 10
0.0
 20
0.0
 30
0.0
  9
$PUCSXDIR
 10
1.0
 20
0.0
 30
0.0
  9
$PUCSYDIR
 10
0.0
 20
1.0
 30
0.0
  9
$USERI1
 70
     0
  9
$USERI2
 70
     0
  9
$USERI3
 70
     0
  9
$USERI4
 70
     0
  9
$USERI5
 70
     0
  9
$USERR1
 40
0.0
  9
$USERR2
 40
0.0
  9
$USERR3
 40
0.0
  9
$USERR4
 40
0.0
  9
$USERR5
 40
0.0
  9
$WORLDVIEW
 70
     1
  9
$SHADEDGE
 70
     3
  9
$SHADEDIF
 70
    70
  9
$TILEMODE
 70
     1
  9
$MAXACTVP
 70
    64
  9
$PLIMCHECK
 70
     0
  9
$PEXTMIN
 10
1.0000000000E+20
 20
1.0000000000E+20
 30
1.0000000000E+20
  9
$PEXTMAX
 10
-1.0000000000E+20
 20
-1.0000000000E+20
 30
-1.0000000000E+20
  9
$PLIMMIN
 10
0.0
 20
0.0
  9
$PLIMMAX
 10
12.0
 20
9.0
  9
$UNITMODE
 70
     0
  9
$VISRETAIN
 70
     1
  9
$PLINEGEN
 70
     0
  9
$PSLTSCALE
 70
     1
  0
ENDSEC
  0
SECTION
  2
TABLES
  0
TABLE
  2
VPORT
 70
     1
  0
VPORT
  2
*ACTIVE
 70
     0
 10
0.0
 20
0.0
 11
1.0
 21
1.0
 12
5.5
 22
4.25
 13
0.0
 23
0.0
 14
0.5
 24
0.5
 15
0.5
 25
0.5
 16
0.0
 26
0.0
 36
1.0
 17
0.0
 27
0.0
 37
0.0
 40
8.5
 41
1.2941176471
 42
50.0
 43
0.0
 44
0.0
 50
0.0
 51
0.0
 71
     0
 72
  2000
 73
     1
 74
     3
 75
     0
 76
     0
 77
     0
 78
     0
  0
ENDTAB
  0
TABLE
  2
LTYPE
 70
     6
  0
LTYPE
  2
CONTINUOUS
 70
     0
  3
Solid line
 72
    65
 73
     0
 40
0.0
  0
LTYPE
  2
HIDDEN
 70
     0
  3
Hidden __ __ __ __ __ __ __ __ __ __ __ __ __ __
 72
    65
 73
     2
 40
0.075
 49
0.05
 49
-0.025
  0
LTYPE
  2
PHANTOM
 70
     0
  3
Phantom ______  __  __  ______  __  __  ______
 72
    65
 73
     6
 40
0.5
 49
0.25
 49
-0.05
 49
0.05
 49
-0.05
 49
0.05
 49
-0.05
  0
LTYPE
  2
CENTER
 70
     0
  3
Center ____ _ ____ _ ____ _ ____ _ ____ _ ____
 72
    65
 73
     4
 40
0.4
 49
0.25
 49
-0.05
 49
0.05
 49
-0.05
  0
LTYPE
  2
CENTERX2
 70
     0
  3
Center (2x) ________  __  ________  __  _____
 72
    65
 73
     4
 40
0.8
 49
0.5
 49
-0.1
 49
0.1
 49
-0.1
  0
LTYPE
  2
DOT2
 70
     0
  3
Dot (.5x) ........................................
 72
    65
 73
     2
 40
0.025
 49
0.0
 49
-0.025
  0
ENDTAB
  0
TABLE
  2
LAYER
 70
     1
  0
LAYER
  2
0
 70
     0
 62
     7
  6
CONTINUOUS
  0
ENDTAB
  0
TABLE
  2
STYLE
 70
     1
  0
STYLE
  2
STANDARD
 70
     0
 40
0.0
 41
1.0
 50
0.0
 71
     0
 42
0.125
  3
txt
  4

  0
ENDTAB
  0
TABLE
  2
VIEW
 70
     0
  0
ENDTAB
  0
TABLE
  2
UCS
 70
     0
  0
ENDTAB
  0
TABLE
  2
APPID
 70
     1
  0
APPID
  2
ACAD
 70
     0
  0
ENDTAB
  0
TABLE
  2
DIMSTYLE
 70
     1
  0
DIMSTYLE
  2
STANDARD
 70
     0
  3

  4

  5

  6

  7

 40
1.0
 41
0.18
 42
0.0625
 43
0.38
 44
0.18
 45
0.0
 46
0.0
 47
0.0
 48
0.0
140
0.18
141
0.09
142
0.0
143
25.4
144
1.0
145
0.0
146
1.0
147
0.09
 71
     0
 72
     0
 73
     1
 74
     1
 75
     0
 76
     0
 77
     0
 78
     0
170
     0
171
     2
172
     0
173
     0
174
     0
175
     0
176
     0
177
     0
178
     0
  0
ENDTAB
  0
ENDSEC
  0
SECTION
  2
BLOCKS
  0
BLOCK
  8
0
  2
$MODEL_SPACE
 70
     0
 10
0.0
 20
0.0
 30
0.0
  3
$MODEL_SPACE
  1

  0
ENDBLK
  5
21
  8
0
  0
BLOCK
 67
     1
  8
0
  2
$PAPER_SPACE
 70
     0
 10
0.0
 20
0.0
 30
0.0
  3
$PAPER_SPACE
  1

  0
ENDBLK
  5
1D
 67
     1
  8
0
  0
ENDSEC
  0
SECTION
  2
ENTITIES
  0
LINE
  5
63
  8
0
  6
CONTINUOUS
 62
     7
 10
0.4477684988
 20
0.2762650781
 30
0.0
 11
10.4477684988
 21
0.2762650781
 31
0.0
  0
LINE
  5
64
  8
0
  6
CONTINUOUS
 62
     7
 10
0.4477684988
 20
8.2762650781
 30
0.0
 11
0.4477684988
 21
0.2762650781
 31
0.0
  0
LINE
  5
65
  8
0
  6
CONTINUOUS
 62
     7
 10
10.4477684988
 20
0.2762650781
 30
0.0
 11
10.4477684988
 21
8.2762650781
 31
0.0
  0
LINE
  5
66
  8
0
  6
CONTINUOUS
 62
     7
 10
10.4477684988
 20
8.2762650781
 30
0.0
 11
0.4477684988
 21
8.2762650781
 31
0.0
  0
CIRCLE
  5
67
  8
0
  6
CONTINUOUS
 62
     7
 10
3.5767103201
 20
2.6874198247
 30
0.0
 40
0.0574999999999992
  0
CIRCLE
  5
68
  8
0
  6
CONTINUOUS
 62
     7
 10
3.5767103201
 20
2.6874198247
 30
0.0
 40
0.6249999999999991
  0
CIRCLE
  5
69
  8
0
  6
CONTINUOUS
 62
     7
 10
4.8760678189
 20
2.7030507003
 30
0.0
 40
0.0574999999999992
  0
CIRCLE
  5
6A
  8
0
  6
CONTINUOUS
 62
     7
 10
4.8760678189
 20
2.7030507003
 30
0.0
 40
0.6249999999999991
  0
CIRCLE
  5
6B
  8
0
  6
CONTINUOUS
 62
     7
 10
6.2003857742
 20
2.7155392681
 30
0.0
 40
0.0574999999999988
  0
CIRCLE
  5
6C
  8
0
  6
CONTINUOUS
 62
     7
 10
6.2003857742
 20
2.7155392681
 30
0.0
 40
0.6249999999999987
  0
CIRCLE
  5
6D
  8
0
  6
CONTINUOUS
 62
     7
 10
4.8472130113
 20
4.0009214966
 30
0.0
 40
0.6249999999999987
  0
CIRCLE
  5
6E
  8
0
  6
CONTINUOUS
 62
     7
 10
4.8472130113
 20
4.0009214966
 30
0.0
 40
0.0574999999999988
  0
CIRCLE
  5
6F
  8
0
  6
CONTINUOUS
 62
     7
 10
6.1789335956
 20
4.0211206603
 30
0.0
 40
0.0574999999999988
  0
CIRCLE
  5
70
  8
0
  6
CONTINUOUS
 62
     7
 10
6.1789335956
 20
4.0211206603
 30
0.0
 40
0.6249999999999987
  0
CIRCLE
  5
71
  8
0
  6
CONTINUOUS
 62
     7
 10
3.5519917401
 20
4.0026862048
 30
0.0
 40
0.0574999999999992
  0
CIRCLE
  5
72
  8
0
  6
CONTINUOUS
 62
     7
 10
3.5519917401
 20
4.0026862048
 30
0.0
 40
0.6249999999999991
  0
CIRCLE
  5
73
  8
0
  6
CONTINUOUS
 62
     7
 10
9.0555540746
 20
5.8682792006
 30
0.0
 40
0.0549999999999985
  0
CIRCLE
  5
74
  8
0
  6
CONTINUOUS
 62
     7
 10
9.0555540746
 20
5.8682792006
 30
0.0
 40
0.1250000000000013
  0
CIRCLE
  5
75
  8
0
  6
CONTINUOUS
 62
     7
 10
9.3434595437
 20
5.8758554605
 30
0.0
 40
0.0549999999999977
  0
CIRCLE
  5
76
  8
0
  6
CONTINUOUS
 62
     7
 10
9.3434595437
 20
5.8758554605
 30
0.0
 40
0.1250000000000021
  0
CIRCLE
  5
77
  8
0
  6
CONTINUOUS
 62
     7
 10
9.9250088557
 20
5.8615429928
 30
0.0
 40
0.0550000000000011
  0
CIRCLE
  5
78
  8
0
  6
CONTINUOUS
 62
     7
 10
9.9250088557
 20
5.8615429928
 30
0.0
 40
0.1250000000000007
  0
CIRCLE
  5
79
  8
0
  6
CONTINUOUS
 62
     7
 10
9.9167745837
 20
6.1831219961
 30
0.0
 40
0.0549999999999993
  0
CIRCLE
  5
7A
  8
0
  6
CONTINUOUS
 62
     7
 10
9.9167745837
 20
6.1831219961
 30
0.0
 40
0.1249999999999993
  0
CIRCLE
  5
7B
  8
0
  6
CONTINUOUS
 62
     7
 10
9.0565135489
 20
6.1812285272
 30
0.0
 40
0.1250000000000013
  0
CIRCLE
  5
7C
  8
0
  6
CONTINUOUS
 62
     7
 10
9.0565135489
 20
6.1812285272
 30
0.0
 40
0.055000000000002
  0
CIRCLE
  5
7D
  8
0
  6
CONTINUOUS
 62
     7
 10
9.6372448782
 20
5.8720550818
 30
0.0
 40
0.0549999999999993
  0
CIRCLE
  5
7E
  8
0
  6
CONTINUOUS
 62
     7
 10
9.6372448782
 20
5.8720550818
 30
0.0
 40
0.1250000000000009
  0
CIRCLE
  5
7F
  8
0
  6
CONTINUOUS
 62
     7
 10
9.6368675778
 20
6.1809341719
 30
0.0
 40
0.0549999999999989
  0
CIRCLE
  5
80
  8
0
  6
CONTINUOUS
 62
     7
 10
9.6368675778
 20
6.1809341719
 30
0.0
 40
0.125000000000002
  0
CIRCLE
  5
81
  8
0
  6
CONTINUOUS
 62
     7
 10
9.3443166902
 20
6.1840180381
 30
0.0
 40
0.0550000000000011
  0
CIRCLE
  5
82
  8
0
  6
CONTINUOUS
 62
     7
 10
9.3443166902
 20
6.1840180381
 30
0.0
 40
0.1250000000000021
  0
CIRCLE
  5
83
  8
0
  6
CONTINUOUS
 62
     7
 10
9.442977675
 20
6.9589111782
 30
0.0
 40
0.1250000000000019
  0
CIRCLE
  5
84
  8
0
  6
CONTINUOUS
 62
     7
 10
9.442977675
 20
6.9589111782
 30
0.0
 40
0.1749999999999985
  0
CIRCLE
  5
85
  8
0
  6
CONTINUOUS
 62
     7
 10
9.0373964717
 20
6.9822750239
 30
0.0
 40
0.1749999999999985
  0
CIRCLE
  5
86
  8
0
  6
CONTINUOUS
 62
     7
 10
9.0373964717
 20
6.9822750239
 30
0.0
 40
0.1250000000000013
  0
CIRCLE
  5
87
  8
0
  6
CONTINUOUS
 62
     7
 10
9.8386124112
 20
6.9458546027
 30
0.0
 40
0.1249999999999996
  0
CIRCLE
  5
88
  8
0
  6
CONTINUOUS
 62
     7
 10
9.8386124112
 20
6.9458546027
 30
0.0
 40
0.1750000000000009
  0
CIRCLE
  5
89
  8
0
  6
CONTINUOUS
 62
     7
 10
9.425228977
 20
7.3773366377
 30
0.0
 40
0.1749999999999982
  0
CIRCLE
  5
8A
  8
0
  6
CONTINUOUS
 62
     7
 10
9.425228977
 20
7.3773366377
 30
0.0
 40
0.1250000000000013
  0
CIRCLE
  5
8B
  8
0
  6
CONTINUOUS
 62
     7
 10
9.4735073142
 20
6.5688190577
 30
0.0
 40
0.1250000000000008
  0
CIRCLE
  5
8C
  8
0
  6
CONTINUOUS
 62
     7
 10
9.4735073142
 20
6.5688190577
 30
0.0
 40
0.1749999999999995
  0
CIRCLE
  5
8D
  8
0
  6
CONTINUOUS
 62
     7
 10
9.8224061801
 20
7.3826456515
 30
0.0
 40
0.1749999999999991
  0
CIRCLE
  5
8E
  8
0
  6
CONTINUOUS
 62
     7
 10
9.8224061801
 20
7.3826456515
 30
0.0
 40
0.1250000000000004
  0
CIRCLE
  5
8F
  8
0
  6
CONTINUOUS
 62
     7
 10
9.0444985545
 20
6.5842710972
 30
0.0
 40
0.1249999999999978
  0
CIRCLE
  5
90
  8
0
  6
CONTINUOUS
 62
     7
 10
9.0444985545
 20
6.5842710972
 30
0.0
 40
0.1750000000000002
  0
CIRCLE
  5
91
  8
0
  6
CONTINUOUS
 62
     7
 10
9.0294063493
 20
7.3737847439
 30
0.0
 40
0.1249999999999993
  0
CIRCLE
  5
92
  8
0
  6
CONTINUOUS
 62
     7
 10
9.0294063493
 20
7.3737847439
 30
0.0
 40
0.1749999999999993
  0
CIRCLE
  5
93
  8
0
  6
CONTINUOUS
 62
     7
 10
9.8459875378
 20
6.5515116287
 30
0.0
 40
0.125
  0
CIRCLE
  5
94
  8
0
  6
CONTINUOUS
 62
     7
 10
9.8459875378
 20
6.5515116287
 30
0.0
 40
0.1750000000000012
  0
CIRCLE
  5
95
  8
0
  6
CONTINUOUS
 62
     7
 10
7.9918027085
 20
6.8357958324
 30
0.0
 40
0.0574999999999983
  0
LINE
  5
96
  8
0
  6
CONTINUOUS
 62
     7
 10
8.2418027085
 20
6.0857958324
 30
0.0
 11
8.0488432436
 21
6.0857958324
 31
0.0
  0
LINE
  5
97
  8
0
  6
CONTINUOUS
 62
     7
 10
7.7418027085
 20
6.0857958324
 30
0.0
 11
7.7418027085
 21
6.8357958324
 31
0.0
  0
ARC
  5
98
  8
0
  6
CONTINUOUS
 62
     7
 10
7.9918027085
 20
6.8357958324
 30
0.0
 40
0.2500000000000036
 50
0.0
 51
90.0
  0
ARC
  5
99
  8
0
  6
CONTINUOUS
 62
     7
 10
7.9918027085
 20
6.8357958324
 30
0.0
 40
0.2500000000000036
 50
90.0
 51
180.0
  0
LINE
  5
9A
  8
0
  6
CONTINUOUS
 62
     7
 10
7.9318432436
 20
6.3357958324
 30
0.0
 11
8.0488432436
 21
6.3357958324
 31
0.0
  0
LINE
  5
9B
  8
0
  6
CONTINUOUS
 62
     7
 10
8.2418027085
 20
6.8357958324
 30
0.0
 11
8.2418027085
 21
6.0857958324
 31
0.0
  0
LINE
  5
9C
  8
0
  6
CONTINUOUS
 62
     7
 10
7.9318432436
 20
6.0857958324
 30
0.0
 11
7.9318432436
 21
6.3357958324
 31
0.0
  0
LINE
  5
9D
  8
0
  6
CONTINUOUS
 62
     7
 10
8.0488432436
 20
6.3357958324
 30
0.0
 11
8.0488432436
 21
6.0857958324
 31
0.0
  0
LINE
  5
9E
  8
0
  6
CONTINUOUS
 62
     7
 10
7.9318432436
 20
6.0857958324
 30
0.0
 11
7.7418027085
 21
6.0857958324
 31
0.0
  0
LINE
  5
9F
  8
0
  6
CONTINUOUS
 62
     7
 10
8.3195294451
 20
7.1578010093
 30
0.0
 11
8.3195294451
 21
7.9078010093
 31
0.0
  0
LINE
  5
A0
  8
0
  6
CONTINUOUS
 62
     7
 10
8.5095699802
 20
7.1578010093
 30
0.0
 11
8.3195294451
 21
7.1578010093
 31
0.0
  0
ARC
  5
A1
  8
0
  6
CONTINUOUS
 62
     7
 10
8.5695294451
 20
7.9078010093
 30
0.0
 40
0.2499999999999982
 50
0.0
 51
90.0
  0
ARC
  5
A2
  8
0
  6
CONTINUOUS
 62
     7
 10
8.5695294451
 20
7.9078010093
 30
0.0
 40
0.2499999999999982
 50
90.0
 51
180.0
  0
LINE
  5
A3
  8
0
  6
CONTINUOUS
 62
     7
 10
8.5095699802
 20
7.4078010093
 30
0.0
 11
8.6265699802
 21
7.4078010093
 31
0.0
  0
LINE
  5
A4
  8
0
  6
CONTINUOUS
 62
     7
 10
8.6265699802
 20
7.4078010093
 30
0.0
 11
8.6265699802
 21
7.1578010093
 31
0.0
  0
LINE
  5
A5
  8
0
  6
CONTINUOUS
 62
     7
 10
8.5095699802
 20
7.1578010093
 30
0.0
 11
8.5095699802
 21
7.4078010093
 31
0.0
  0
LINE
  5
A6
  8
0
  6
CONTINUOUS
 62
     7
 10
8.8195294451
 20
7.1578010093
 30
0.0
 11
8.6265699802
 21
7.1578010093
 31
0.0
  0
LINE
  5
A7
  8
0
  6
CONTINUOUS
 62
     7
 10
8.8195294451
 20
7.9078010093
 30
0.0
 11
8.8195294451
 21
7.1578010093
 31
0.0
  0
CIRCLE
  5
A8
  8
0
  6
CONTINUOUS
 62
     7
 10
8.5695294451
 20
7.9078010093
 30
0.0
 40
0.0575000000000028
  0
LINE
  5
A9
  8
0
  6
CONTINUOUS
 62
     7
 10
7.9410165418
 20
7.1690079453
 30
0.0
 11
7.7509760067
 21
7.1690079453
 31
0.0
  0
CIRCLE
  5
AA
  8
0
  6
CONTINUOUS
 62
     7
 10
8.0009760067
 20
7.9190079453
 30
0.0
 40
0.0575000000000037
  0
LINE
  5
AB
  8
0
  6
CONTINUOUS
 62
     7
 10
8.2509760067
 20
7.1690079453
 30
0.0
 11
8.0580165418
 21
7.1690079453
 31
0.0
  0
LINE
  5
AC
  8
0
  6
CONTINUOUS
 62
     7
 10
8.2509760067
 20
7.9190079453
 30
0.0
 11
8.2509760067
 21
7.1690079453
 31
0.0
  0
LINE
  5
AD
  8
0
  6
CONTINUOUS
 62
     7
 10
7.7509760067
 20
7.1690079453
 30
0.0
 11
7.7509760067
 21
7.9190079453
 31
0.0
  0
ARC
  5
AE
  8
0
  6
CONTINUOUS
 62
     7
 10
8.0009760067
 20
7.9190079453
 30
0.0
 40
0.2499999999999982
 50
90.0
 51
180.0
  0
ARC
  5
AF
  8
0
  6
CONTINUOUS
 62
     7
 10
8.0009760067
 20
7.9190079453
 30
0.0
 40
0.25
 50
0.0
 51
90.0
  0
LINE
  5
B0
  8
0
  6
CONTINUOUS
 62
     7
 10
7.9410165418
 20
7.4190079453
 30
0.0
 11
8.0580165418
 21
7.4190079453
 31
0.0
  0
LINE
  5
B1
  8
0
  6
CONTINUOUS
 62
     7
 10
8.0580165418
 20
7.4190079453
 30
0.0
 11
8.0580165418
 21
7.1690079453
 31
0.0
  0
LINE
  5
B2
  8
0
  6
CONTINUOUS
 62
     7
 10
7.9410165418
 20
7.1690079453
 30
0.0
 11
7.9410165418
 21
7.4190079453
 31
0.0
  0
LINE
  5
B3
  8
0
  6
CONTINUOUS
 62
     7
 10
8.8252589871
 20
6.0836034185
 30
0.0
 11
8.6322995222
 21
6.0836034185
 31
0.0
  0
ARC
  5
B4
  8
0
  6
CONTINUOUS
 62
     7
 10
8.5752589871
 20
6.8336034185
 30
0.0
 40
0.2500000000000027
 50
90.0
 51
180.0
  0
CIRCLE
  5
B5
  8
0
  6
CONTINUOUS
 62
     7
 10
8.5752589871
 20
6.8336034185
 30
0.0
 40
0.0574999999999992
  0
ARC
  5
B6
  8
0
  6
CONTINUOUS
 62
     7
 10
8.5752589871
 20
6.8336034185
 30
0.0
 40
0.2500000000000027
 50
0.0
 51
90.0
  0
LINE
  5
B7
  8
0
  6
CONTINUOUS
 62
     7
 10
8.3252589871
 20
6.0836034185
 30
0.0
 11
8.3252589871
 21
6.8336034185
 31
0.0
  0
LINE
  5
B8
  8
0
  6
CONTINUOUS
 62
     7
 10
8.5152995222
 20
6.0836034185
 30
0.0
 11
8.5152995222
 21
6.3336034185
 31
0.0
  0
LINE
  5
B9
  8
0
  6
CONTINUOUS
 62
     7
 10
8.8252589871
 20
6.8336034185
 30
0.0
 11
8.8252589871
 21
6.0836034185
 31
0.0
  0
LINE
  5
BA
  8
0
  6
CONTINUOUS
 62
     7
 10
8.6322995222
 20
6.3336034185
 30
0.0
 11
8.6322995222
 21
6.0836034185
 31
0.0
  0
LINE
  5
BB
  8
0
  6
CONTINUOUS
 62
     7
 10
8.5152995222
 20
6.3336034185
 30
0.0
 11
8.6322995222
 21
6.3336034185
 31
0.0
  0
LINE
  5
BC
  8
0
  6
CONTINUOUS
 62
     7
 10
8.5152995222
 20
6.0836034185
 30
0.0
 11
8.3252589871
 21
6.0836034185
 31
0.0
  0
CIRCLE
  5
BD
  8
0
  6
CONTINUOUS
 62
     7
 10
8.0120916214
 20
5.7666049455
 30
0.0
 40
0.0574999999999992
  0
LINE
  5
BE
  8
0
  6
CONTINUOUS
 62
     7
 10
8.2620916214
 20
5.0166049455
 30
0.0
 11
8.0691321565
 21
5.0166049455
 31
0.0
  0
LINE
  5
BF
  8
0
  6
CONTINUOUS
 62
     7
 10
8.0691321565
 20
5.2666049455
 30
0.0
 11
8.0691321565
 21
5.0166049455
 31
0.0
  0
LINE
  5
C0
  8
0
  6
CONTINUOUS
 62
     7
 10
7.9521321565
 20
5.2666049455
 30
0.0
 11
8.0691321565
 21
5.2666049455
 31
0.0
  0
LINE
  5
C1
  8
0
  6
CONTINUOUS
 62
     7
 10
7.9521321565
 20
5.0166049455
 30
0.0
 11
7.9521321565
 21
5.2666049455
 31
0.0
  0
LINE
  5
C2
  8
0
  6
CONTINUOUS
 62
     7
 10
7.9521321565
 20
5.0166049455
 30
0.0
 11
7.7620916214
 21
5.0166049455
 31
0.0
  0
LINE
  5
C3
  8
0
  6
CONTINUOUS
 62
     7
 10
7.7620916214
 20
5.0166049455
 30
0.0
 11
7.7620916214
 21
5.7666049455
 31
0.0
  0
ARC
  5
C4
  8
0
  6
CONTINUOUS
 62
     7
 10
8.0120916214
 20
5.7666049455
 30
0.0
 40
0.2500000000000036
 50
90.0
 51
180.0
  0
ARC
  5
C5
  8
0
  6
CONTINUOUS
 62
     7
 10
8.0120916214
 20
5.7666049455
 30
0.0
 40
0.2500000000000036
 50
0.0
 51
90.0
  0
LINE
  5
C6
  8
0
  6
CONTINUOUS
 62
     7
 10
8.2620916214
 20
5.7666049455
 30
0.0
 11
8.2620916214
 21
5.0166049455
 31
0.0
  0
ARC
  5
C7
  8
0
  6
CONTINUOUS
 62
     7
 10
7.3856143671
 20
6.8478258195
 30
0.0
 40
0.2500000000000036
 50
0.0
 51
90.0
  0
LINE
  5
C8
  8
0
  6
CONTINUOUS
 62
     7
 10
7.3256549022
 20
6.0978258195
 30
0.0
 11
7.1356143671
 21
6.0978258195
 31
0.0
  0
LINE
  5
C9
  8
0
  6
CONTINUOUS
 62
     7
 10
7.6356143671
 20
6.8478258195
 30
0.0
 11
7.6356143671
 21
6.0978258195
 31
0.0
  0
LINE
  5
CA
  8
0
  6
CONTINUOUS
 62
     7
 10
7.1356143671
 20
6.0978258195
 30
0.0
 11
7.1356143671
 21
6.8478258195
 31
0.0
  0
LINE
  5
CB
  8
0
  6
CONTINUOUS
 62
     7
 10
7.3256549022
 20
6.0978258195
 30
0.0
 11
7.3256549022
 21
6.3478258195
 31
0.0
  0
ARC
  5
CC
  8
0
  6
CONTINUOUS
 62
     7
 10
7.3856143671
 20
6.8478258195
 30
0.0
 40
0.2500000000000036
 50
90.0
 51
180.0
  0
CIRCLE
  5
CD
  8
0
  6
CONTINUOUS
 62
     7
 10
7.3856143671
 20
6.8478258195
 30
0.0
 40
0.0574999999999983
  0
LINE
  5
CE
  8
0
  6
CONTINUOUS
 62
     7
 10
7.4426549022
 20
6.3478258195
 30
0.0
 11
7.4426549022
 21
6.0978258195
 31
0.0
  0
LINE
  5
CF
  8
0
  6
CONTINUOUS
 62
     7
 10
7.6356143671
 20
6.0978258195
 30
0.0
 11
7.4426549022
 21
6.0978258195
 31
0.0
  0
LINE
  5
D0
  8
0
  6
CONTINUOUS
 62
     7
 10
7.3256549022
 20
6.3478258195
 30
0.0
 11
7.4426549022
 21
6.3478258195
 31
0.0
  0
CIRCLE
  5
D1
  8
0
  6
CONTINUOUS
 62
     7
 10
7.3870534706
 20
4.6678148441
 30
0.0
 40
0.0574999999999983
  0
LINE
  5
D2
  8
0
  6
CONTINUOUS
 62
     7
 10
7.3270940057
 20
3.9178148441
 30
0.0
 11
7.3270940057
 21
4.1678148441
 31
0.0
  0
LINE
  5
D3
  8
0
  6
CONTINUOUS
 62
     7
 10
7.1370534706
 20
3.9178148441
 30
0.0
 11
7.1370534706
 21
4.6678148441
 31
0.0
  0
ARC
  5
D4
  8
0
  6
CONTINUOUS
 62
     7
 10
7.3870534706
 20
4.6678148441
 30
0.0
 40
0.2500000000000036
 50
90.0
 51
180.0
  0
ARC
  5
D5
  8
0
  6
CONTINUOUS
 62
     7
 10
7.3870534706
 20
4.6678148441
 30
0.0
 40
0.2500000000000036
 50
0.0
 51
90.0
  0
LINE
  5
D6
  8
0
  6
CONTINUOUS
 62
     7
 10
7.6370534706
 20
3.9178148441
 30
0.0
 11
7.4440940057
 21
3.9178148441
 31
0.0
  0
LINE
  5
D7
  8
0
  6
CONTINUOUS
 62
     7
 10
7.4440940057
 20
4.1678148441
 30
0.0
 11
7.4440940057
 21
3.9178148441
 31
0.0
  0
LINE
  5
D8
  8
0
  6
CONTINUOUS
 62
     7
 10
7.6370534706
 20
4.6678148441
 30
0.0
 11
7.6370534706
 21
3.9178148441
 31
0.0
  0
LINE
  5
D9
  8
0
  6
CONTINUOUS
 62
     7
 10
7.3270940057
 20
3.9178148441
 30
0.0
 11
7.1370534706
 21
3.9178148441
 31
0.0
  0
LINE
  5
DA
  8
0
  6
CONTINUOUS
 62
     7
 10
7.3270940057
 20
4.1678148441
 30
0.0
 11
7.4440940057
 21
4.1678148441
 31
0.0
  0
CIRCLE
  5
DB
  8
0
  6
CONTINUOUS
 62
     7
 10
6.7834462674
 20
6.8888584281
 30
0.0
 40
0.0574999999999992
  0
LINE
  5
DC
  8
0
  6
CONTINUOUS
 62
     7
 10
7.0334462674
 20
6.1388584281
 30
0.0
 11
6.8404868025
 21
6.1388584281
 31
0.0
  0
LINE
  5
DD
  8
0
  6
CONTINUOUS
 62
     7
 10
6.8404868025
 20
6.3888584281
 30
0.0
 11
6.8404868025
 21
6.1388584281
 31
0.0
  0
LINE
  5
DE
  8
0
  6
CONTINUOUS
 62
     7
 10
6.7234868025
 20
6.3888584281
 30
0.0
 11
6.8404868025
 21
6.3888584281
 31
0.0
  0
LINE
  5
DF
  8
0
  6
CONTINUOUS
 62
     7
 10
6.7234868025
 20
6.1388584281
 30
0.0
 11
6.7234868025
 21
6.3888584281
 31
0.0
  0
LINE
  5
E0
  8
0
  6
CONTINUOUS
 62
     7
 10
6.7234868025
 20
6.1388584281
 30
0.0
 11
6.5334462674
 21
6.1388584281
 31
0.0
  0
LINE
  5
E1
  8
0
  6
CONTINUOUS
 62
     7
 10
6.5334462674
 20
6.1388584281
 30
0.0
 11
6.5334462674
 21
6.8888584281
 31
0.0
  0
ARC
  5
E2
  8
0
  6
CONTINUOUS
 62
     7
 10
6.7834462674
 20
6.8888584281
 30
0.0
 40
0.2500000000000027
 50
90.0
 51
180.0
  0
ARC
  5
E3
  8
0
  6
CONTINUOUS
 62
     7
 10
6.7834462674
 20
6.8888584281
 30
0.0
 40
0.2500000000000027
 50
0.0
 51
90.0
  0
LINE
  5
E4
  8
0
  6
CONTINUOUS
 62
     7
 10
7.0334462674
 20
6.8888584281
 30
0.0
 11
7.0334462674
 21
6.1388584281
 31
0.0
  0
LINE
  5
E5
  8
0
  6
CONTINUOUS
 62
     7
 10
7.3337319564
 20
7.1813410649
 30
0.0
 11
7.1436914213
 21
7.1813410649
 31
0.0
  0
ARC
  5
E6
  8
0
  6
CONTINUOUS
 62
     7
 10
7.3936914213
 20
7.9313410649
 30
0.0
 40
0.2499999999999982
 50
90.0
 51
180.0
  0
ARC
  5
E7
  8
0
  6
CONTINUOUS
 62
     7
 10
7.3936914213
 20
7.9313410649
 30
0.0
 40
0.2499999999999991
 50
0.0
 51
90.0
  0
LINE
  5
E8
  8
0
  6
CONTINUOUS
 62
     7
 10
7.3337319564
 20
7.4313410649
 30
0.0
 11
7.4507319564
 21
7.4313410649
 31
0.0
  0
LINE
  5
E9
  8
0
  6
CONTINUOUS
 62
     7
 10
7.4507319564
 20
7.4313410649
 30
0.0
 11
7.4507319564
 21
7.1813410649
 31
0.0
  0
LINE
  5
EA
  8
0
  6
CONTINUOUS
 62
     7
 10
7.3337319564
 20
7.1813410649
 30
0.0
 11
7.3337319564
 21
7.4313410649
 31
0.0
  0
CIRCLE
  5
EB
  8
0
  6
CONTINUOUS
 62
     7
 10
7.3936914213
 20
7.9313410649
 30
0.0
 40
0.0575000000000037
  0
LINE
  5
EC
  8
0
  6
CONTINUOUS
 62
     7
 10
7.6436914213
 20
7.9313410649
 30
0.0
 11
7.6436914213
 21
7.1813410649
 31
0.0
  0
LINE
  5
ED
  8
0
  6
CONTINUOUS
 62
     7
 10
7.1436914213
 20
7.1813410649
 30
0.0
 11
7.1436914213
 21
7.9313410649
 31
0.0
  0
LINE
  5
EE
  8
0
  6
CONTINUOUS
 62
     7
 10
7.6436914213
 20
7.1813410649
 30
0.0
 11
7.4507319564
 21
7.1813410649
 31
0.0
  0
LINE
  5
EF
  8
0
  6
CONTINUOUS
 62
     7
 10
7.9463255241
 20
4.1948599292
 30
0.0
 11
8.0633255241
 21
4.1948599292
 31
0.0
  0
LINE
  5
F0
  8
0
  6
CONTINUOUS
 62
     7
 10
7.9463255241
 20
3.9448599292
 30
0.0
 11
7.9463255241
 21
4.1948599292
 31
0.0
  0
LINE
  5
F1
  8
0
  6
CONTINUOUS
 62
     7
 10
7.756284989
 20
3.9448599292
 30
0.0
 11
7.756284989
 21
4.6948599292
 31
0.0
  0
ARC
  5
F2
  8
0
  6
CONTINUOUS
 62
     7
 10
8.006284989
 20
4.6948599292
 30
0.0
 40
0.2500000000000036
 50
90.0
 51
180.0
  0
ARC
  5
F3
  8
0
  6
CONTINUOUS
 62
     7
 10
8.006284989
 20
4.6948599292
 30
0.0
 40
0.2500000000000036
 50
0.0
 51
90.0
  0
LINE
  5
F4
  8
0
  6
CONTINUOUS
 62
     7
 10
8.256284989
 20
3.9448599292
 30
0.0
 11
8.0633255241
 21
3.9448599292
 31
0.0
  0
LINE
  5
F5
  8
0
  6
CONTINUOUS
 62
     7
 10
8.256284989
 20
4.6948599292
 30
0.0
 11
8.256284989
 21
3.9448599292
 31
0.0
  0
LINE
  5
F6
  8
0
  6
CONTINUOUS
 62
     7
 10
7.9463255241
 20
3.9448599292
 30
0.0
 11
7.756284989
 21
3.9448599292
 31
0.0
  0
CIRCLE
  5
F7
  8
0
  6
CONTINUOUS
 62
     7
 10
8.006284989
 20
4.6948599292
 30
0.0
 40
0.0574999999999992
  0
LINE
  5
F8
  8
0
  6
CONTINUOUS
 62
     7
 10
8.0633255241
 20
4.1948599292
 30
0.0
 11
8.0633255241
 21
3.9448599292
 31
0.0
  0
LINE
  5
F9
  8
0
  6
CONTINUOUS
 62
     7
 10
8.5181861478
 20
3.9310897341
 30
0.0
 11
8.3281456127
 21
3.9310897341
 31
0.0
  0
LINE
  5
FA
  8
0
  6
CONTINUOUS
 62
     7
 10
8.6351861478
 20
4.1810897341
 30
0.0
 11
8.6351861478
 21
3.9310897341
 31
0.0
  0
LINE
  5
FB
  8
0
  6
CONTINUOUS
 62
     7
 10
8.5181861478
 20
3.9310897341
 30
0.0
 11
8.5181861478
 21
4.1810897341
 31
0.0
  0
CIRCLE
  5
FC
  8
0
  6
CONTINUOUS
 62
     7
 10
8.5781456127
 20
4.6810897341
 30
0.0
 40
0.0574999999999992
  0
LINE
  5
FD
  8
0
  6
CONTINUOUS
 62
     7
 10
8.8281456127
 20
4.6810897341
 30
0.0
 11
8.8281456127
 21
3.9310897341
 31
0.0
  0
LINE
  5
FE
  8
0
  6
CONTINUOUS
 62
     7
 10
8.3281456127
 20
3.9310897341
 30
0.0
 11
8.3281456127
 21
4.6810897341
 31
0.0
  0
LINE
  5
FF
  8
0
  6
CONTINUOUS
 62
     7
 10
8.8281456127
 20
3.9310897341
 30
0.0
 11
8.6351861478
 21
3.9310897341
 31
0.0
  0
ARC
  5
100
  8
0
  6
CONTINUOUS
 62
     7
 10
8.5781456127
 20
4.6810897341
 30
0.0
 40
0.2500000000000027
 50
90.0
 51
180.0
  0
ARC
  5
101
  8
0
  6
CONTINUOUS
 62
     7
 10
8.5781456127
 20
4.6810897341
 30
0.0
 40
0.2500000000000027
 50
0.0
 51
90.0
  0
LINE
  5
102
  8
0
  6
CONTINUOUS
 62
     7
 10
8.5181861478
 20
4.1810897341
 30
0.0
 11
8.6351861478
 21
4.1810897341
 31
0.0
  0
CIRCLE
  5
103
  8
0
  6
CONTINUOUS
 62
     7
 10
7.391484364
 20
5.7824878765
 30
0.0
 40
0.0574999999999992
  0
LINE
  5
104
  8
0
  6
CONTINUOUS
 62
     7
 10
7.641484364
 20
5.7824878765
 30
0.0
 11
7.641484364
 21
5.0324878765
 31
0.0
  0
LINE
  5
105
  8
0
  6
CONTINUOUS
 62
     7
 10
7.641484364
 20
5.0324878765
 30
0.0
 11
7.4485248991
 21
5.0324878765
 31
0.0
  0
LINE
  5
106
  8
0
  6
CONTINUOUS
 62
     7
 10
7.4485248991
 20
5.2824878765
 30
0.0
 11
7.4485248991
 21
5.0324878765
 31
0.0
  0
LINE
  5
107
  8
0
  6
CONTINUOUS
 62
     7
 10
7.3315248991
 20
5.2824878765
 30
0.0
 11
7.4485248991
 21
5.2824878765
 31
0.0
  0
LINE
  5
108
  8
0
  6
CONTINUOUS
 62
     7
 10
7.3315248991
 20
5.0324878765
 30
0.0
 11
7.3315248991
 21
5.2824878765
 31
0.0
  0
LINE
  5
109
  8
0
  6
CONTINUOUS
 62
     7
 10
7.141484364
 20
5.0324878765
 30
0.0
 11
7.141484364
 21
5.7824878765
 31
0.0
  0
ARC
  5
10A
  8
0
  6
CONTINUOUS
 62
     7
 10
7.391484364
 20
5.7824878765
 30
0.0
 40
0.2500000000000027
 50
90.0
 51
180.0
  0
ARC
  5
10B
  8
0
  6
CONTINUOUS
 62
     7
 10
7.391484364
 20
5.7824878765
 30
0.0
 40
0.2500000000000027
 50
0.0
 51
90.0
  0
LINE
  5
10C
  8
0
  6
CONTINUOUS
 62
     7
 10
7.3315248991
 20
5.0324878765
 30
0.0
 11
7.141484364
 21
5.0324878765
 31
0.0
  0
CIRCLE
  5
10D
  8
0
  6
CONTINUOUS
 62
     7
 10
6.7954355334
 20
7.9462313751
 30
0.0
 40
0.0575000000000037
  0
LINE
  5
10E
  8
0
  6
CONTINUOUS
 62
     7
 10
7.0454355334
 20
7.9462313751
 30
0.0
 11
7.0454355334
 21
7.1962313751
 31
0.0
  0
LINE
  5
10F
  8
0
  6
CONTINUOUS
 62
     7
 10
7.0454355334
 20
7.1962313751
 30
0.0
 11
6.8524760685
 21
7.1962313751
 31
0.0
  0
LINE
  5
110
  8
0
  6
CONTINUOUS
 62
     7
 10
6.7354760685
 20
7.1962313751
 30
0.0
 11
6.7354760685
 21
7.4462313751
 31
0.0
  0
LINE
  5
111
  8
0
  6
CONTINUOUS
 62
     7
 10
6.7354760685
 20
7.1962313751
 30
0.0
 11
6.5454355334
 21
7.1962313751
 31
0.0
  0
LINE
  5
112
  8
0
  6
CONTINUOUS
 62
     7
 10
6.5454355334
 20
7.1962313751
 30
0.0
 11
6.5454355334
 21
7.9462313751
 31
0.0
  0
ARC
  5
113
  8
0
  6
CONTINUOUS
 62
     7
 10
6.7954355334
 20
7.9462313751
 30
0.0
 40
0.2499999999999982
 50
90.0
 51
180.0
  0
ARC
  5
114
  8
0
  6
CONTINUOUS
 62
     7
 10
6.7954355334
 20
7.9462313751
 30
0.0
 40
0.2499999999999991
 50
0.0
 51
90.0
  0
LINE
  5
115
  8
0
  6
CONTINUOUS
 62
     7
 10
6.7354760685
 20
7.4462313751
 30
0.0
 11
6.8524760685
 21
7.4462313751
 31
0.0
  0
LINE
  5
116
  8
0
  6
CONTINUOUS
 62
     7
 10
6.8524760685
 20
7.4462313751
 30
0.0
 11
6.8524760685
 21
7.1962313751
 31
0.0
  0
LINE
  5
117
  8
0
  6
CONTINUOUS
 62
     7
 10
8.3330920289
 20
5.017149062
 30
0.0
 11
8.3330920289
 21
5.767149062
 31
0.0
  0
LINE
  5
118
  8
0
  6
CONTINUOUS
 62
     7
 10
8.523132564
 20
5.017149062
 30
0.0
 11
8.3330920289
 21
5.017149062
 31
0.0
  0
LINE
  5
119
  8
0
  6
CONTINUOUS
 62
     7
 10
8.8330920289
 20
5.017149062
 30
0.0
 11
8.640132564
 21
5.017149062
 31
0.0
  0
LINE
  5
11A
  8
0
  6
CONTINUOUS
 62
     7
 10
8.8330920289
 20
5.767149062
 30
0.0
 11
8.8330920289
 21
5.017149062
 31
0.0
  0
LINE
  5
11B
  8
0
  6
CONTINUOUS
 62
     7
 10
8.523132564
 20
5.017149062
 30
0.0
 11
8.523132564
 21
5.267149062
 31
0.0
  0
CIRCLE
  5
11C
  8
0
  6
CONTINUOUS
 62
     7
 10
8.5830920289
 20
5.767149062
 30
0.0
 40
0.0574999999999992
  0
LINE
  5
11D
  8
0
  6
CONTINUOUS
 62
     7
 10
8.640132564
 20
5.267149062
 30
0.0
 11
8.640132564
 21
5.017149062
 31
0.0
  0
LINE
  5
11E
  8
0
  6
CONTINUOUS
 62
     7
 10
8.523132564
 20
5.267149062
 30
0.0
 11
8.640132564
 21
5.267149062
 31
0.0
  0
ARC
  5
11F
  8
0
  6
CONTINUOUS
 62
     7
 10
8.5830920289
 20
5.767149062
 30
0.0
 40
0.2500000000000027
 50
0.0
 51
90.0
  0
ARC
  5
120
  8
0
  6
CONTINUOUS
 62
     7
 10
8.5830920289
 20
5.767149062
 30
0.0
 40
0.2500000000000027
 50
90.0
 51
180.0
  0
LINE
  5
121
  8
0
  6
CONTINUOUS
 62
     7
 10
10.0990446863
 20
3.8864297088
 30
0.0
 11
9.3000936374
 21
3.8864297088
 31
0.0
  0
LINE
  5
122
  8
0
  6
CONTINUOUS
 62
     7
 10
10.0990446863
 20
4.0034297088
 30
0.0
 11
10.0990446863
 21
3.8864297088
 31
0.0
  0
LINE
  5
123
  8
0
  6
CONTINUOUS
 62
     7
 10
9.3000936374
 20
4.0034297088
 30
0.0
 11
10.0990446863
 21
4.0034297088
 31
0.0
  0
LINE
  5
124
  8
0
  6
CONTINUOUS
 62
     7
 10
10.0990446863
 20
4.1534297088
 30
0.0
 11
9.3000936374
 21
4.1534297088
 31
0.0
  0
LINE
  5
125
  8
0
  6
CONTINUOUS
 62
     7
 10
9.3000936374
 20
7.6194297088
 30
0.0
 11
10.0990446863
 21
7.6194297088
 31
0.0
  0
CIRCLE
  5
126
  8
0
  6
CONTINUOUS
 62
     7
 10
10.2265087691
 20
3.7614297088
 30
0.0
 40
0.0750000000000028
  0
CIRCLE
  5
127
  8
0
  6
CONTINUOUS
 62
     7
 10
10.2265087691
 20
8.0114297088
 30
0.0
 40
0.0749999999999975
  0
LINE
  5
128
  8
0
  6
CONTINUOUS
 62
     7
 10
10.0990446863
 20
7.8864297088
 30
0.0
 11
10.0990446863
 21
7.7694297088
 31
0.0
  0
LINE
  5
129
  8
0
  6
CONTINUOUS
 62
     7
 10
10.0990446863
 20
7.7694297088
 30
0.0
 11
9.3000936374
 21
7.7694297088
 31
0.0
  0
LINE
  5
12A
  8
0
  6
CONTINUOUS
 62
     7
 10
9.3000936374
 20
7.8864297088
 30
0.0
 11
10.0990446863
 21
7.8864297088
 31
0.0
  0
LINE
  5
12B
  8
0
  6
CONTINUOUS
 62
     7
 10
9.3000936374
 20
4.0034297088
 30
0.0
 11
9.3000936374
 21
4.1534297088
 31
0.0
  0
LINE
  5
12C
  8
0
  6
CONTINUOUS
 62
     7
 10
10.3490446863
 20
8.1364297088
 30
0.0
 11
10.3490446863
 21
3.6364297088
 31
0.0
  0
CIRCLE
  5
12D
  8
0
  6
CONTINUOUS
 62
     7
 10
10.2265087691
 20
5.8864297088
 30
0.0
 40
0.0749999999999975
  0
LINE
  5
12E
  8
0
  6
CONTINUOUS
 62
     7
 10
9.3000936374
 20
3.6364297088
 30
0.0
 11
9.3000936374
 21
3.8864297088
 31
0.0
  0
LINE
  5
12F
  8
0
  6
CONTINUOUS
 62
     7
 10
9.3000936374
 20
7.8864297088
 30
0.0
 11
9.3000936374
 21
8.1364297088
 31
0.0
  0
LINE
  5
130
  8
0
  6
CONTINUOUS
 62
     7
 10
10.3490446863
 20
3.6364297088
 30
0.0
 11
9.3000936374
 21
3.6364297088
 31
0.0
  0
LINE
  5
131
  8
0
  6
CONTINUOUS
 62
     7
 10
9.3000936374
 20
7.6194297088
 30
0.0
 11
9.3000936374
 21
7.7694297088
 31
0.0
  0
LINE
  5
132
  8
0
  6
CONTINUOUS
 62
     7
 10
10.0990446863
 20
7.6194297088
 30
0.0
 11
10.0990446863
 21
4.1534297088
 31
0.0
  0
LINE
  5
133
  8
0
  6
CONTINUOUS
 62
     7
 10
9.3000936374
 20
8.1364297088
 30
0.0
 11
10.3490446863
 21
8.1364297088
 31
0.0
  0
LINE
  5
134
  8
0
  6
CONTINUOUS
 62
     7
 10
3.3740687413
 20
6.9319346483
 30
0.0
 11
3.3740687413
 21
7.0819346483
 31
0.0
  0
LINE
  5
135
  8
0
  6
CONTINUOUS
 62
     7
 10
3.4240687413
 20
6.9819346483
 30
0.0
 11
3.4740687413
 21
6.9819346483
 31
0.0
  0
LINE
  5
136
  8
0
  6
CONTINUOUS
 62
     7
 10
3.6740687413
 20
6.9819346483
 30
0.0
 11
3.6740687413
 21
7.0819346483
 31
0.0
  0
LINE
  5
137
  8
0
  6
CONTINUOUS
 62
     7
 10
3.6240687413
 20
6.9819346483
 30
0.0
 11
3.6740687413
 21
6.9819346483
 31
0.0
  0
LINE
  5
138
  8
0
  6
CONTINUOUS
 62
     7
 10
3.6240687413
 20
6.9319346483
 30
0.0
 11
3.6240687413
 21
6.9819346483
 31
0.0
  0
LINE
  5
139
  8
0
  6
CONTINUOUS
 62
     7
 10
3.7240687413
 20
7.0819346483
 30
0.0
 11
4.5490687413
 21
7.0819346483
 31
0.0
  0
LINE
  5
13A
  8
0
  6
CONTINUOUS
 62
     7
 10
4.8990687413
 20
6.9319346483
 30
0.0
 11
4.7990687413
 21
6.9319346483
 31
0.0
  0
LINE
  5
13B
  8
0
  6
CONTINUOUS
 62
     7
 10
4.8990687413
 20
7.0819346483
 30
0.0
 11
4.8990687413
 21
6.9319346483
 31
0.0
  0
LINE
  5
13C
  8
0
  6
CONTINUOUS
 62
     7
 10
3.4740687413
 20
6.9319346483
 30
0.0
 11
3.3740687413
 21
6.9319346483
 31
0.0
  0
LINE
  5
13D
  8
0
  6
CONTINUOUS
 62
     7
 10
6.3490687413
 20
6.4563899751
 30
0.0
 11
6.3490687413
 21
6.0819253563
 31
0.0
  0
LINE
  5
13E
  8
0
  6
CONTINUOUS
 62
     7
 10
3.4740687413
 20
6.9819346483
 30
0.0
 11
3.4740687413
 21
6.9319346483
 31
0.0
  0
LINE
  5
13F
  8
0
  6
CONTINUOUS
 62
     7
 10
4.8990687413
 20
7.0819346483
 30
0.0
 11
5.7240687413
 21
7.0819346483
 31
0.0
  0
LINE
  5
140
  8
0
  6
CONTINUOUS
 62
     7
 10
3.4240687413
 20
7.0819346483
 30
0.0
 11
3.6740687413
 21
7.0819346483
 31
0.0
  0
LINE
  5
141
  8
0
  6
CONTINUOUS
 62
     7
 10
3.7240687413
 20
6.9319346483
 30
0.0
 11
3.6240687413
 21
6.9319346483
 31
0.0
  0
LINE
  5
142
  8
0
  6
CONTINUOUS
 62
     7
 10
5.7740687413
 20
7.0819346483
 30
0.0
 11
6.0240687413
 21
7.0819346483
 31
0.0
  0
LINE
  5
143
  8
0
  6
CONTINUOUS
 62
     7
 10
3.7240687413
 20
7.0819346483
 30
0.0
 11
3.7240687413
 21
6.9319346483
 31
0.0
  0
LINE
  5
144
  8
0
  6
CONTINUOUS
 62
     7
 10
3.4240687413
 20
7.0819346483
 30
0.0
 11
3.4240687413
 21
6.9819346483
 31
0.0
  0
LINE
  5
145
  8
0
  6
CONTINUOUS
 62
     7
 10
4.8490687413
 20
6.9819346483
 30
0.0
 11
4.8490687413
 21
7.0819346483
 31
0.0
  0
LINE
  5
146
  8
0
  6
CONTINUOUS
 62
     7
 10
4.5990687413
 20
7.0819346483
 30
0.0
 11
4.5990687413
 21
6.9819346483
 31
0.0
  0
LINE
  5
147
  8
0
  6
CONTINUOUS
 62
     7
 10
6.3490687413
 20
7.0819346483
 30
0.0
 11
6.3490687413
 21
6.7063922981
 31
0.0
  0
LINE
  5
148
  8
0
  6
CONTINUOUS
 62
     7
 10
4.5990687413
 20
7.0819346483
 30
0.0
 11
4.8490687413
 21
7.0819346483
 31
0.0
  0
LINE
  5
149
  8
0
  6
CONTINUOUS
 62
     7
 10
2.9740687413
 20
6.7063922981
 30
0.0
 11
3.0990687413
 21
6.7063922981
 31
0.0
  0
LINE
  5
14A
  8
0
  6
CONTINUOUS
 62
     7
 10
2.9740687413
 20
6.4563899751
 30
0.0
 11
2.9740687413
 21
6.7063922981
 31
0.0
  0
LINE
  5
14B
  8
0
  6
CONTINUOUS
 62
     7
 10
4.5990687413
 20
6.9819346483
 30
0.0
 11
4.6490687413
 21
6.9819346483
 31
0.0
  0
LINE
  5
14C
  8
0
  6
CONTINUOUS
 62
     7
 10
5.8240687413
 20
6.9819346483
 30
0.0
 11
5.8240687413
 21
6.9319346483
 31
0.0
  0
LINE
  5
14D
  8
0
  6
CONTINUOUS
 62
     7
 10
4.7990687413
 20
6.9319346483
 30
0.0
 11
4.7990687413
 21
6.9819346483
 31
0.0
  0
LINE
  5
14E
  8
0
  6
CONTINUOUS
 62
     7
 10
5.7740687413
 20
7.0819346483
 30
0.0
 11
5.7740687413
 21
6.9819346483
 31
0.0
  0
LINE
  5
14F
  8
0
  6
CONTINUOUS
 62
     7
 10
6.4740687413
 20
6.7063922981
 30
0.0
 11
6.4740687413
 21
6.4563899751
 31
0.0
  0
LINE
  5
150
  8
0
  6
CONTINUOUS
 62
     7
 10
5.7740687413
 20
6.9819346483
 30
0.0
 11
5.8240687413
 21
6.9819346483
 31
0.0
  0
LINE
  5
151
  8
0
  6
CONTINUOUS
 62
     7
 10
4.6490687413
 20
6.9319346483
 30
0.0
 11
4.5490687413
 21
6.9319346483
 31
0.0
  0
LINE
  5
152
  8
0
  6
CONTINUOUS
 62
     7
 10
6.3490687413
 20
6.7063922981
 30
0.0
 11
6.4740687413
 21
6.7063922981
 31
0.0
  0
LINE
  5
153
  8
0
  6
CONTINUOUS
 62
     7
 10
3.0990687413
 20
7.0819346483
 30
0.0
 11
3.3740687413
 21
7.0819346483
 31
0.0
  0
LINE
  5
154
  8
0
  6
CONTINUOUS
 62
     7
 10
6.0740687413
 20
7.0819346483
 30
0.0
 11
6.3490687413
 21
7.0819346483
 31
0.0
  0
LINE
  5
155
  8
0
  6
CONTINUOUS
 62
     7
 10
3.0990687413
 20
6.7063922981
 30
0.0
 11
3.0990687413
 21
7.0819346483
 31
0.0
  0
LINE
  5
156
  8
0
  6
CONTINUOUS
 62
     7
 10
3.0990687413
 20
6.4563899751
 30
0.0
 11
2.9740687413
 21
6.4563899751
 31
0.0
  0
LINE
  5
157
  8
0
  6
CONTINUOUS
 62
     7
 10
5.9740687413
 20
6.9819346483
 30
0.0
 11
6.0240687413
 21
6.9819346483
 31
0.0
  0
LINE
  5
158
  8
0
  6
CONTINUOUS
 62
     7
 10
6.3490687413
 20
6.0819253563
 30
0.0
 11
3.0990687413
 21
6.0819253563
 31
0.0
  0
LINE
  5
159
  8
0
  6
CONTINUOUS
 62
     7
 10
6.0740687413
 20
6.9319346483
 30
0.0
 11
5.9740687413
 21
6.9319346483
 31
0.0
  0
LINE
  5
15A
  8
0
  6
CONTINUOUS
 62
     7
 10
5.9740687413
 20
6.9319346483
 30
0.0
 11
5.9740687413
 21
6.9819346483
 31
0.0
  0
LINE
  5
15B
  8
0
  6
CONTINUOUS
 62
     7
 10
6.0240687413
 20
6.9819346483
 30
0.0
 11
6.0240687413
 21
7.0819346483
 31
0.0
  0
LINE
  5
15C
  8
0
  6
CONTINUOUS
 62
     7
 10
6.0740687413
 20
7.0819346483
 30
0.0
 11
6.0740687413
 21
6.9319346483
 31
0.0
  0
LINE
  5
15D
  8
0
  6
CONTINUOUS
 62
     7
 10
4.6490687413
 20
6.9819346483
 30
0.0
 11
4.6490687413
 21
6.9319346483
 31
0.0
  0
LINE
  5
15E
  8
0
  6
CONTINUOUS
 62
     7
 10
5.7240687413
 20
6.9319346483
 30
0.0
 11
5.7240687413
 21
7.0819346483
 31
0.0
  0
LINE
  5
15F
  8
0
  6
CONTINUOUS
 62
     7
 10
3.0990687413
 20
6.0819253563
 30
0.0
 11
3.0990687413
 21
6.4563899751
 31
0.0
  0
LINE
  5
160
  8
0
  6
CONTINUOUS
 62
     7
 10
6.4740687413
 20
6.4563899751
 30
0.0
 11
6.3490687413
 21
6.4563899751
 31
0.0
  0
LINE
  5
161
  8
0
  6
CONTINUOUS
 62
     7
 10
5.8240687413
 20
6.9319346483
 30
0.0
 11
5.7240687413
 21
6.9319346483
 31
0.0
  0
LINE
  5
162
  8
0
  6
CONTINUOUS
 62
     7
 10
4.7990687413
 20
6.9819346483
 30
0.0
 11
4.8490687413
 21
6.9819346483
 31
0.0
  0
LINE
  5
163
  8
0
  6
CONTINUOUS
 62
     7
 10
4.5490687413
 20
6.9319346483
 30
0.0
 11
4.5490687413
 21
7.0819346483
 31
0.0
  0
LINE
  5
164
  8
0
  6
CONTINUOUS
 62
     7
 10
6.0793794861
 20
8.1426601918
 30
0.0
 11
6.3543794861
 21
8.1426601918
 31
0.0
  0
LINE
  5
165
  8
0
  6
CONTINUOUS
 62
     7
 10
6.3543794861
 20
8.1426601918
 30
0.0
 11
6.3543794861
 21
7.7671178416
 31
0.0
  0
LINE
  5
166
  8
0
  6
CONTINUOUS
 62
     7
 10
6.3543794861
 20
7.7671178416
 30
0.0
 11
6.4793794861
 21
7.7671178416
 31
0.0
  0
LINE
  5
167
  8
0
  6
CONTINUOUS
 62
     7
 10
6.4793794861
 20
7.7671178416
 30
0.0
 11
6.4793794861
 21
7.5171155186
 31
0.0
  0
LINE
  5
168
  8
0
  6
CONTINUOUS
 62
     7
 10
6.3543794861
 20
7.5171155186
 30
0.0
 11
6.3543794861
 21
7.1426508998
 31
0.0
  0
LINE
  5
169
  8
0
  6
CONTINUOUS
 62
     7
 10
6.3543794861
 20
7.1426508998
 30
0.0
 11
3.1043794861
 21
7.1426508998
 31
0.0
  0
LINE
  5
16A
  8
0
  6
CONTINUOUS
 62
     7
 10
3.1043794861
 20
7.1426508998
 30
0.0
 11
3.1043794861
 21
7.5171155186
 31
0.0
  0
LINE
  5
16B
  8
0
  6
CONTINUOUS
 62
     7
 10
3.1043794861
 20
7.5171155186
 30
0.0
 11
2.9793794861
 21
7.5171155186
 31
0.0
  0
LINE
  5
16C
  8
0
  6
CONTINUOUS
 62
     7
 10
2.9793794861
 20
7.5171155186
 30
0.0
 11
2.9793794861
 21
7.7671178416
 31
0.0
  0
LINE
  5
16D
  8
0
  6
CONTINUOUS
 62
     7
 10
2.9793794861
 20
7.7671178416
 30
0.0
 11
3.1043794861
 21
7.7671178416
 31
0.0
  0
LINE
  5
16E
  8
0
  6
CONTINUOUS
 62
     7
 10
3.1043794861
 20
7.7671178416
 30
0.0
 11
3.1043794861
 21
8.1426601918
 31
0.0
  0
LINE
  5
16F
  8
0
  6
CONTINUOUS
 62
     7
 10
3.1043794861
 20
8.1426601918
 30
0.0
 11
3.3793794861
 21
8.1426601918
 31
0.0
  0
LINE
  5
170
  8
0
  6
CONTINUOUS
 62
     7
 10
3.4293794861
 20
8.1426601918
 30
0.0
 11
3.6793794861
 21
8.1426601918
 31
0.0
  0
LINE
  5
171
  8
0
  6
CONTINUOUS
 62
     7
 10
3.6793794861
 20
8.0426601918
 30
0.0
 11
3.6793794861
 21
8.1426601918
 31
0.0
  0
LINE
  5
172
  8
0
  6
CONTINUOUS
 62
     7
 10
3.6293794861
 20
8.0426601918
 30
0.0
 11
3.6793794861
 21
8.0426601918
 31
0.0
  0
LINE
  5
173
  8
0
  6
CONTINUOUS
 62
     7
 10
3.6293794861
 20
7.9926601918
 30
0.0
 11
3.6293794861
 21
8.0426601918
 31
0.0
  0
LINE
  5
174
  8
0
  6
CONTINUOUS
 62
     7
 10
3.7293794861
 20
7.9926601918
 30
0.0
 11
3.6293794861
 21
7.9926601918
 31
0.0
  0
LINE
  5
175
  8
0
  6
CONTINUOUS
 62
     7
 10
3.7293794861
 20
8.1426601918
 30
0.0
 11
4.5543794861
 21
8.1426601918
 31
0.0
  0
LINE
  5
176
  8
0
  6
CONTINUOUS
 62
     7
 10
4.5543794861
 20
7.9926601918
 30
0.0
 11
4.5543794861
 21
8.1426601918
 31
0.0
  0
LINE
  5
177
  8
0
  6
CONTINUOUS
 62
     7
 10
4.6543794861
 20
7.9926601918
 30
0.0
 11
4.5543794861
 21
7.9926601918
 31
0.0
  0
LINE
  5
178
  8
0
  6
CONTINUOUS
 62
     7
 10
4.6043794861
 20
8.1426601918
 30
0.0
 11
4.6043794861
 21
8.0426601918
 31
0.0
  0
LINE
  5
179
  8
0
  6
CONTINUOUS
 62
     7
 10
4.6043794861
 20
8.1426601918
 30
0.0
 11
4.8543794861
 21
8.1426601918
 31
0.0
  0
LINE
  5
17A
  8
0
  6
CONTINUOUS
 62
     7
 10
4.8043794861
 20
7.9926601918
 30
0.0
 11
4.8043794861
 21
8.0426601918
 31
0.0
  0
LINE
  5
17B
  8
0
  6
CONTINUOUS
 62
     7
 10
4.9043794861
 20
8.1426601918
 30
0.0
 11
4.9043794861
 21
7.9926601918
 31
0.0
  0
LINE
  5
17C
  8
0
  6
CONTINUOUS
 62
     7
 10
4.9043794861
 20
8.1426601918
 30
0.0
 11
5.7293794861
 21
8.1426601918
 31
0.0
  0
LINE
  5
17D
  8
0
  6
CONTINUOUS
 62
     7
 10
5.7293794861
 20
7.9926601918
 30
0.0
 11
5.7293794861
 21
8.1426601918
 31
0.0
  0
LINE
  5
17E
  8
0
  6
CONTINUOUS
 62
     7
 10
5.8293794861
 20
7.9926601918
 30
0.0
 11
5.7293794861
 21
7.9926601918
 31
0.0
  0
LINE
  5
17F
  8
0
  6
CONTINUOUS
 62
     7
 10
5.8293794861
 20
8.0426601918
 30
0.0
 11
5.8293794861
 21
7.9926601918
 31
0.0
  0
LINE
  5
180
  8
0
  6
CONTINUOUS
 62
     7
 10
5.7793794861
 20
8.0426601918
 30
0.0
 11
5.8293794861
 21
8.0426601918
 31
0.0
  0
LINE
  5
181
  8
0
  6
CONTINUOUS
 62
     7
 10
5.7793794861
 20
8.1426601918
 30
0.0
 11
5.7793794861
 21
8.0426601918
 31
0.0
  0
LINE
  5
182
  8
0
  6
CONTINUOUS
 62
     7
 10
5.7793794861
 20
8.1426601918
 30
0.0
 11
6.0293794861
 21
8.1426601918
 31
0.0
  0
LINE
  5
183
  8
0
  6
CONTINUOUS
 62
     7
 10
6.0293794861
 20
8.0426601918
 30
0.0
 11
6.0293794861
 21
8.1426601918
 31
0.0
  0
LINE
  5
184
  8
0
  6
CONTINUOUS
 62
     7
 10
5.9793794861
 20
8.0426601918
 30
0.0
 11
6.0293794861
 21
8.0426601918
 31
0.0
  0
LINE
  5
185
  8
0
  6
CONTINUOUS
 62
     7
 10
5.9793794861
 20
7.9926601918
 30
0.0
 11
5.9793794861
 21
8.0426601918
 31
0.0
  0
LINE
  5
186
  8
0
  6
CONTINUOUS
 62
     7
 10
6.0793794861
 20
7.9926601918
 30
0.0
 11
5.9793794861
 21
7.9926601918
 31
0.0
  0
LINE
  5
187
  8
0
  6
CONTINUOUS
 62
     7
 10
6.0793794861
 20
8.1426601918
 30
0.0
 11
6.0793794861
 21
7.9926601918
 31
0.0
  0
LINE
  5
188
  8
0
  6
CONTINUOUS
 62
     7
 10
4.9043794861
 20
7.9926601918
 30
0.0
 11
4.8043794861
 21
7.9926601918
 31
0.0
  0
LINE
  5
189
  8
0
  6
CONTINUOUS
 62
     7
 10
3.4793794861
 20
8.0426601918
 30
0.0
 11
3.4793794861
 21
7.9926601918
 31
0.0
  0
LINE
  5
18A
  8
0
  6
CONTINUOUS
 62
     7
 10
6.4793794861
 20
7.5171155186
 30
0.0
 11
6.3543794861
 21
7.5171155186
 31
0.0
  0
LINE
  5
18B
  8
0
  6
CONTINUOUS
 62
     7
 10
4.6043794861
 20
8.0426601918
 30
0.0
 11
4.6543794861
 21
8.0426601918
 31
0.0
  0
LINE
  5
18C
  8
0
  6
CONTINUOUS
 62
     7
 10
4.8543794861
 20
8.0426601918
 30
0.0
 11
4.8543794861
 21
8.1426601918
 31
0.0
  0
LINE
  5
18D
  8
0
  6
CONTINUOUS
 62
     7
 10
3.4293794861
 20
8.0426601918
 30
0.0
 11
3.4793794861
 21
8.0426601918
 31
0.0
  0
LINE
  5
18E
  8
0
  6
CONTINUOUS
 62
     7
 10
3.4293794861
 20
8.1426601918
 30
0.0
 11
3.4293794861
 21
8.0426601918
 31
0.0
  0
LINE
  5
18F
  8
0
  6
CONTINUOUS
 62
     7
 10
3.4793794861
 20
7.9926601918
 30
0.0
 11
3.3793794861
 21
7.9926601918
 31
0.0
  0
LINE
  5
190
  8
0
  6
CONTINUOUS
 62
     7
 10
3.3793794861
 20
7.9926601918
 30
0.0
 11
3.3793794861
 21
8.1426601918
 31
0.0
  0
LINE
  5
191
  8
0
  6
CONTINUOUS
 62
     7
 10
4.6543794861
 20
8.0426601918
 30
0.0
 11
4.6543794861
 21
7.9926601918
 31
0.0
  0
LINE
  5
192
  8
0
  6
CONTINUOUS
 62
     7
 10
3.7293794861
 20
8.1426601918
 30
0.0
 11
3.7293794861
 21
7.9926601918
 31
0.0
  0
LINE
  5
193
  8
0
  6
CONTINUOUS
 62
     7
 10
4.8043794861
 20
8.0426601918
 30
0.0
 11
4.8543794861
 21
8.0426601918
 31
0.0
  0
CIRCLE
  5
194
  8
0
  6
CONTINUOUS
 62
     7
 10
7.5181348818
 20
2.6985958741
 30
0.0
 40
0.1249999999999981
  0
CIRCLE
  5
195
  8
0
  6
CONTINUOUS
 62
     7
 10
7.5181348818
 20
2.6985958741
 30
0.0
 40
0.6250000000000001
  0
CIRCLE
  5
196
  8
0
  6
CONTINUOUS
 62
     7
 10
4.8591373327
 20
5.3075549397
 30
0.0
 40
0.1250000000000009
  0
CIRCLE
  5
197
  8
0
  6
CONTINUOUS
 62
     7
 10
4.8591373327
 20
5.3075549397
 30
0.0
 40
0.6249999999999982
  0
CIRCLE
  5
198
  8
0
  6
CONTINUOUS
 62
     7
 10
3.5669386837
 20
5.3293902652
 30
0.0
 40
0.1250000000000018
  0
CIRCLE
  5
199
  8
0
  6
CONTINUOUS
 62
     7
 10
3.5669386837
 20
5.3293902652
 30
0.0
 40
0.6249999999999991
  0
CIRCLE
  5
19A
  8
0
  6
CONTINUOUS
 62
     7
 10
6.1898804442
 20
5.2946112456
 30
0.0
 40
0.1250000000000004
  0
CIRCLE
  5
19B
  8
0
  6
CONTINUOUS
 62
     7
 10
6.1898804442
 20
5.2946112456
 30
0.0
 40
0.6250000000000007
  0
LINE
  5
19C
  8
0
  6
CONTINUOUS
 62
     7
 10
9.3819981031
 20
1.5548512295
 30
0.0
 11
9.6319981031
 21
1.5548512295
 31
0.0
  0
LINE
  5
19D
  8
0
  6
CONTINUOUS
 62
     7
 10
9.6319981031
 20
1.6718512295
 30
0.0
 11
9.3819981031
 21
1.6718512295
 31
0.0
  0
LINE
  5
19E
  8
0
  6
CONTINUOUS
 62
     7
 10
9.3819981031
 20
1.6718512295
 30
0.0
 11
9.3819981031
 21
1.5548512295
 31
0.0
  0
LINE
  5
19F
  8
0
  6
CONTINUOUS
 62
     7
 10
0.8489981031
 20
1.6718512295
 30
0.0
 11
0.8489981031
 21
1.8633512295
 31
0.0
  0
LINE
  5
1A0
  8
0
  6
CONTINUOUS
 62
     7
 10
0.8489981031
 20
1.8633512295
 30
0.0
 11
0.7319981031
 21
1.8633512295
 31
0.0
  0
LINE
  5
1A1
  8
0
  6
CONTINUOUS
 62
     7
 10
0.7319981031
 20
1.8633512295
 30
0.0
 11
0.7319981031
 21
1.6718512295
 31
0.0
  0
LINE
  5
1A2
  8
0
  6
CONTINUOUS
 62
     7
 10
1.9499981031
 20
1.6718512295
 30
0.0
 11
1.9499981031
 21
1.8633512295
 31
0.0
  0
LINE
  5
1A3
  8
0
  6
CONTINUOUS
 62
     7
 10
1.9499981031
 20
1.3601814352
 30
0.0
 11
1.9499981031
 21
1.5548512295
 31
0.0
  0
LINE
  5
1A4
  8
0
  6
CONTINUOUS
 62
     7
 10
1.8329981031
 20
1.5548512295
 30
0.0
 11
1.8329981031
 21
1.3601814352
 31
0.0
  0
LINE
  5
1A5
  8
0
  6
CONTINUOUS
 62
     7
 10
1.8329981031
 20
1.3601814352
 30
0.0
 11
1.9499981031
 21
1.3601814352
 31
0.0
  0
LINE
  5
1A6
  8
0
  6
CONTINUOUS
 62
     7
 10
0.8489981031
 20
1.3601814352
 30
0.0
 11
0.8489981031
 21
1.5548512295
 31
0.0
  0
LINE
  5
1A7
  8
0
  6
CONTINUOUS
 62
     7
 10
0.7319981031
 20
1.5548512295
 30
0.0
 11
0.7319981031
 21
1.3601814352
 31
0.0
  0
LINE
  5
1A8
  8
0
  6
CONTINUOUS
 62
     7
 10
0.7319981031
 20
1.3601814352
 30
0.0
 11
0.8489981031
 21
1.3601814352
 31
0.0
  0
LINE
  5
1A9
  8
0
  6
CONTINUOUS
 62
     7
 10
1.2159981031
 20
1.6718512295
 30
0.0
 11
1.2159981031
 21
1.8633512295
 31
0.0
  0
LINE
  5
1AA
  8
0
  6
CONTINUOUS
 62
     7
 10
1.0989981031
 20
1.6718512295
 30
0.0
 11
1.2159981031
 21
1.6718512295
 31
0.0
  0
LINE
  5
1AB
  8
0
  6
CONTINUOUS
 62
     7
 10
1.2159981031
 20
1.3601814352
 30
0.0
 11
1.2159981031
 21
1.5548512295
 31
0.0
  0
LINE
  5
1AC
  8
0
  6
CONTINUOUS
 62
     7
 10
1.0989981031
 20
1.5548512295
 30
0.0
 11
1.0989981031
 21
1.3601814352
 31
0.0
  0
LINE
  5
1AD
  8
0
  6
CONTINUOUS
 62
     7
 10
1.0989981031
 20
1.3601814352
 30
0.0
 11
1.2159981031
 21
1.3601814352
 31
0.0
  0
LINE
  5
1AE
  8
0
  6
CONTINUOUS
 62
     7
 10
1.4659981031
 20
1.8633512295
 30
0.0
 11
1.4659981031
 21
1.6718512295
 31
0.0
  0
LINE
  5
1AF
  8
0
  6
CONTINUOUS
 62
     7
 10
1.4659981031
 20
1.6718512295
 30
0.0
 11
1.5829981031
 21
1.6718512295
 31
0.0
  0
LINE
  5
1B0
  8
0
  6
CONTINUOUS
 62
     7
 10
0.6319981031
 20
1.2383512295
 30
0.0
 11
9.6319981031
 21
1.2383512295
 31
0.0
  0
LINE
  5
1B1
  8
0
  6
CONTINUOUS
 62
     7
 10
0.6319981031
 20
1.9883512295
 30
0.0
 11
0.6319981031
 21
1.2383512295
 31
0.0
  0
LINE
  5
1B2
  8
0
  6
CONTINUOUS
 62
     7
 10
9.6319981031
 20
1.9883512295
 30
0.0
 11
0.6319981031
 21
1.9883512295
 31
0.0
  0
LINE
  5
1B3
  8
0
  6
CONTINUOUS
 62
     7
 10
9.6319981031
 20
1.2383512295
 30
0.0
 11
9.6319981031
 21
1.5548512295
 31
0.0
  0
LINE
  5
1B4
  8
0
  6
CONTINUOUS
 62
     7
 10
9.6319981031
 20
1.6718512295
 30
0.0
 11
9.6319981031
 21
1.9883512295
 31
0.0
  0
LINE
  5
1B5
  8
0
  6
CONTINUOUS
 62
     7
 10
1.0989981031
 20
1.8633512295
 30
0.0
 11
1.0989981031
 21
1.6718512295
 31
0.0
  0
LINE
  5
1B6
  8
0
  6
CONTINUOUS
 62
     7
 10
1.8329981031
 20
1.6718512295
 30
0.0
 11
1.9499981031
 21
1.6718512295
 31
0.0
  0
LINE
  5
1B7
  8
0
  6
CONTINUOUS
 62
     7
 10
1.5829981031
 20
1.6718512295
 30
0.0
 11
1.5829981031
 21
1.8633512295
 31
0.0
  0
LINE
  5
1B8
  8
0
  6
CONTINUOUS
 62
     7
 10
1.5829981031
 20
1.8633512295
 30
0.0
 11
1.4659981031
 21
1.8633512295
 31
0.0
  0
LINE
  5
1B9
  8
0
  6
CONTINUOUS
 62
     7
 10
1.8329981031
 20
1.8633512295
 30
0.0
 11
1.8329981031
 21
1.6718512295
 31
0.0
  0
LINE
  5
1BA
  8
0
  6
CONTINUOUS
 62
     7
 10
1.4659981031
 20
1.3601814352
 30
0.0
 11
1.5829981031
 21
1.3601814352
 31
0.0
  0
LINE
  5
1BB
  8
0
  6
CONTINUOUS
 62
     7
 10
1.5829981031
 20
1.3601814352
 30
0.0
 11
1.5829981031
 21
1.5548512295
 31
0.0
  0
LINE
  5
1BC
  8
0
  6
CONTINUOUS
 62
     7
 10
1.5829981031
 20
1.5548512295
 30
0.0
 11
1.4659981031
 21
1.5548512295
 31
0.0
  0
LINE
  5
1BD
  8
0
  6
CONTINUOUS
 62
     7
 10
1.4659981031
 20
1.5548512295
 30
0.0
 11
1.4659981031
 21
1.3601814352
 31
0.0
  0
LINE
  5
1BE
  8
0
  6
CONTINUOUS
 62
     7
 10
1.9499981031
 20
1.8633512295
 30
0.0
 11
1.8329981031
 21
1.8633512295
 31
0.0
  0
LINE
  5
1BF
  8
0
  6
CONTINUOUS
 62
     7
 10
1.2159981031
 20
1.8633512295
 30
0.0
 11
1.0989981031
 21
1.8633512295
 31
0.0
  0
LINE
  5
1C0
  8
0
  6
CONTINUOUS
 62
     7
 10
0.7319981031
 20
1.6718512295
 30
0.0
 11
0.8489981031
 21
1.6718512295
 31
0.0
  0
LINE
  5
1C1
  8
0
  6
CONTINUOUS
 62
     7
 10
1.2159981031
 20
1.5548512295
 30
0.0
 11
1.0989981031
 21
1.5548512295
 31
0.0
  0
LINE
  5
1C2
  8
0
  6
CONTINUOUS
 62
     7
 10
0.8489981031
 20
1.5548512295
 30
0.0
 11
0.7319981031
 21
1.5548512295
 31
0.0
  0
LINE
  5
1C3
  8
0
  6
CONTINUOUS
 62
     7
 10
1.9499981031
 20
1.5548512295
 30
0.0
 11
1.8329981031
 21
1.5548512295
 31
0.0
  0
LINE
  5
1C4
  8
0
  6
CONTINUOUS
 62
     7
 10
1.4834633636
 20
1.012030067
 30
0.0
 11
1.4834633636
 21
0.820530067
 31
0.0
  0
LINE
  5
1C5
  8
0
  6
CONTINUOUS
 62
     7
 10
1.1164633636
 20
0.5088602727
 30
0.0
 11
1.2334633636
 21
0.5088602727
 31
0.0
  0
LINE
  5
1C6
  8
0
  6
CONTINUOUS
 62
     7
 10
0.6494633636
 20
1.137030067
 30
0.0
 11
0.6494633636
 21
0.387030067
 31
0.0
  0
LINE
  5
1C7
  8
0
  6
CONTINUOUS
 62
     7
 10
9.6494633636
 20
1.137030067
 30
0.0
 11
0.6494633636
 21
1.137030067
 31
0.0
  0
LINE
  5
1C8
  8
0
  6
CONTINUOUS
 62
     7
 10
0.7494633636
 20
0.703530067
 30
0.0
 11
0.7494633636
 21
0.5088602727
 31
0.0
  0
LINE
  5
1C9
  8
0
  6
CONTINUOUS
 62
     7
 10
9.6494633636
 20
0.820530067
 30
0.0
 11
9.6494633636
 21
1.137030067
 31
0.0
  0
LINE
  5
1CA
  8
0
  6
CONTINUOUS
 62
     7
 10
1.9674633636
 20
0.5088602727
 30
0.0
 11
1.9674633636
 21
0.703530067
 31
0.0
  0
LINE
  5
1CB
  8
0
  6
CONTINUOUS
 62
     7
 10
1.9674633636
 20
0.703530067
 30
0.0
 11
1.8504633636
 21
0.703530067
 31
0.0
  0
LINE
  5
1CC
  8
0
  6
CONTINUOUS
 62
     7
 10
0.6494633636
 20
0.387030067
 30
0.0
 11
9.6494633636
 21
0.387030067
 31
0.0
  0
LINE
  5
1CD
  8
0
  6
CONTINUOUS
 62
     7
 10
1.1164633636
 20
0.703530067
 30
0.0
 11
1.1164633636
 21
0.5088602727
 31
0.0
  0
LINE
  5
1CE
  8
0
  6
CONTINUOUS
 62
     7
 10
1.2334633636
 20
0.820530067
 30
0.0
 11
1.2334633636
 21
1.012030067
 31
0.0
  0
LINE
  5
1CF
  8
0
  6
CONTINUOUS
 62
     7
 10
1.8504633636
 20
0.703530067
 30
0.0
 11
1.8504633636
 21
0.5088602727
 31
0.0
  0
LINE
  5
1D0
  8
0
  6
CONTINUOUS
 62
     7
 10
0.8664633636
 20
1.012030067
 30
0.0
 11
0.7494633636
 21
1.012030067
 31
0.0
  0
LINE
  5
1D1
  8
0
  6
CONTINUOUS
 62
     7
 10
0.8664633636
 20
0.703530067
 30
0.0
 11
0.7494633636
 21
0.703530067
 31
0.0
  0
LINE
  5
1D2
  8
0
  6
CONTINUOUS
 62
     7
 10
1.4834633636
 20
0.820530067
 30
0.0
 11
1.6004633636
 21
0.820530067
 31
0.0
  0
LINE
  5
1D3
  8
0
  6
CONTINUOUS
 62
     7
 10
1.6004633636
 20
1.012030067
 30
0.0
 11
1.4834633636
 21
1.012030067
 31
0.0
  0
LINE
  5
1D4
  8
0
  6
CONTINUOUS
 62
     7
 10
1.2334633636
 20
0.703530067
 30
0.0
 11
1.1164633636
 21
0.703530067
 31
0.0
  0
LINE
  5
1D5
  8
0
  6
CONTINUOUS
 62
     7
 10
9.6494633636
 20
0.387030067
 30
0.0
 11
9.6494633636
 21
0.703530067
 31
0.0
  0
LINE
  5
1D6
  8
0
  6
CONTINUOUS
 62
     7
 10
1.2334633636
 20
1.012030067
 30
0.0
 11
1.1164633636
 21
1.012030067
 31
0.0
  0
LINE
  5
1D7
  8
0
  6
CONTINUOUS
 62
     7
 10
1.1164633636
 20
1.012030067
 30
0.0
 11
1.1164633636
 21
0.820530067
 31
0.0
  0
LINE
  5
1D8
  8
0
  6
CONTINUOUS
 62
     7
 10
9.6494633636
 20
0.820530067
 30
0.0
 11
9.3994633636
 21
0.820530067
 31
0.0
  0
LINE
  5
1D9
  8
0
  6
CONTINUOUS
 62
     7
 10
1.6004633636
 20
0.820530067
 30
0.0
 11
1.6004633636
 21
1.012030067
 31
0.0
  0
LINE
  5
1DA
  8
0
  6
CONTINUOUS
 62
     7
 10
1.2334633636
 20
0.5088602727
 30
0.0
 11
1.2334633636
 21
0.703530067
 31
0.0
  0
LINE
  5
1DB
  8
0
  6
CONTINUOUS
 62
     7
 10
0.8664633636
 20
0.5088602727
 30
0.0
 11
0.8664633636
 21
0.703530067
 31
0.0
  0
LINE
  5
1DC
  8
0
  6
CONTINUOUS
 62
     7
 10
1.8504633636
 20
1.012030067
 30
0.0
 11
1.8504633636
 21
0.820530067
 31
0.0
  0
LINE
  5
1DD
  8
0
  6
CONTINUOUS
 62
     7
 10
1.4834633636
 20
0.5088602727
 30
0.0
 11
1.6004633636
 21
0.5088602727
 31
0.0
  0
LINE
  5
1DE
  8
0
  6
CONTINUOUS
 62
     7
 10
1.6004633636
 20
0.5088602727
 30
0.0
 11
1.6004633636
 21
0.703530067
 31
0.0
  0
LINE
  5
1DF
  8
0
  6
CONTINUOUS
 62
     7
 10
1.6004633636
 20
0.703530067
 30
0.0
 11
1.4834633636
 21
0.703530067
 31
0.0
  0
LINE
  5
1E0
  8
0
  6
CONTINUOUS
 62
     7
 10
1.4834633636
 20
0.703530067
 30
0.0
 11
1.4834633636
 21
0.5088602727
 31
0.0
  0
LINE
  5
1E1
  8
0
  6
CONTINUOUS
 62
     7
 10
0.7494633636
 20
0.820530067
 30
0.0
 11
0.8664633636
 21
0.820530067
 31
0.0
  0
LINE
  5
1E2
  8
0
  6
CONTINUOUS
 62
     7
 10
0.8664633636
 20
0.820530067
 30
0.0
 11
0.8664633636
 21
1.012030067
 31
0.0
  0
LINE
  5
1E3
  8
0
  6
CONTINUOUS
 62
     7
 10
0.7494633636
 20
1.012030067
 30
0.0
 11
0.7494633636
 21
0.820530067
 31
0.0
  0
LINE
  5
1E4
  8
0
  6
CONTINUOUS
 62
     7
 10
9.3994633636
 20
0.703530067
 30
0.0
 11
9.6494633636
 21
0.703530067
 31
0.0
  0
LINE
  5
1E5
  8
0
  6
CONTINUOUS
 62
     7
 10
9.3994633636
 20
0.820530067
 30
0.0
 11
9.3994633636
 21
0.703530067
 31
0.0
  0
LINE
  5
1E6
  8
0
  6
CONTINUOUS
 62
     7
 10
1.1164633636
 20
0.820530067
 30
0.0
 11
1.2334633636
 21
0.820530067
 31
0.0
  0
LINE
  5
1E7
  8
0
  6
CONTINUOUS
 62
     7
 10
0.7494633636
 20
0.5088602727
 30
0.0
 11
0.8664633636
 21
0.5088602727
 31
0.0
  0
LINE
  5
1E8
  8
0
  6
CONTINUOUS
 62
     7
 10
1.8504633636
 20
0.5088602727
 30
0.0
 11
1.9674633636
 21
0.5088602727
 31
0.0
  0
LINE
  5
1E9
  8
0
  6
CONTINUOUS
 62
     7
 10
1.9674633636
 20
1.012030067
 30
0.0
 11
1.8504633636
 21
1.012030067
 31
0.0
  0
LINE
  5
1EA
  8
0
  6
CONTINUOUS
 62
     7
 10
1.9674633636
 20
0.820530067
 30
0.0
 11
1.9674633636
 21
1.012030067
 31
0.0
  0
LINE
  5
1EB
  8
0
  6
CONTINUOUS
 62
     7
 10
1.8504633636
 20
0.820530067
 30
0.0
 11
1.9674633636
 21
0.820530067
 31
0.0
  0
LINE
  5
1EC
  8
0
  6
CONTINUOUS
 62
     7
 10
0.6787521507
 20
8.1553513513
 30
0.0
 11
1.6787521507
 21
8.1553513513
 31
0.0
  0
LINE
  5
1ED
  8
0
  6
CONTINUOUS
 62
     7
 10
1.6787521507
 20
8.1553513513
 30
0.0
 11
1.6787521507
 21
2.1553513513
 31
0.0
  0
LINE
  5
1EE
  8
0
  6
CONTINUOUS
 62
     7
 10
1.0537521507
 20
2.1553513513
 30
0.0
 11
1.0537521507
 21
2.2803513513
 31
0.0
  0
CIRCLE
  5
1EF
  8
0
  6
CONTINUOUS
 62
     7
 10
1.1787521507
 20
3.1553513513
 30
0.0
 40
0.1249999999999969
  0
CIRCLE
  5
1F0
  8
0
  6
CONTINUOUS
 62
     7
 10
1.1787521507
 20
7.6553513513
 30
0.0
 40
0.1250000000000053
  0
LINE
  5
1F1
  8
0
  6
CONTINUOUS
 62
     7
 10
1.3040871132
 20
5.9053513513
 30
0.0
 11
1.0540871132
 21
5.9053513513
 31
0.0
  0
LINE
  5
1F2
  8
0
  6
CONTINUOUS
 62
     7
 10
1.3040871132
 20
6.0303513513
 30
0.0
 11
1.3040871132
 21
5.9053513513
 31
0.0
  0
LINE
  5
1F3
  8
0
  6
CONTINUOUS
 62
     7
 10
1.0540871132
 20
6.0303513513
 30
0.0
 11
1.3040871132
 21
6.0303513513
 31
0.0
  0
LINE
  5
1F4
  8
0
  6
CONTINUOUS
 62
     7
 10
1.6787521507
 20
2.1553513513
 30
0.0
 11
1.3037521507
 21
2.1553513513
 31
0.0
  0
LINE
  5
1F5
  8
0
  6
CONTINUOUS
 62
     7
 10
1.0537521507
 20
2.1553513513
 30
0.0
 11
0.6787521507
 21
2.1553513513
 31
0.0
  0
LINE
  5
1F6
  8
0
  6
CONTINUOUS
 62
     7
 10
1.0540871132
 20
5.9053513513
 30
0.0
 11
1.0540871132
 21
6.0303513513
 31
0.0
  0
LINE
  5
1F7
  8
0
  6
CONTINUOUS
 62
     7
 10
1.0537521507
 20
2.2803513513
 30
0.0
 11
1.3037521507
 21
2.2803513513
 31
0.0
  0
LINE
  5
1F8
  8
0
  6
CONTINUOUS
 62
     7
 10
1.3037521507
 20
2.2803513513
 30
0.0
 11
1.3037521507
 21
2.1553513513
 31
0.0
  0
LINE
  5
1F9
  8
0
  6
CONTINUOUS
 62
     7
 10
0.6787521507
 20
2.1553513513
 30
0.0
 11
0.6787521507
 21
8.1553513513
 31
0.0
  0
CIRCLE
  5
1FA
  8
0
  6
CONTINUOUS
 62
     7
 10
2.3812252599
 20
3.1443859259
 30
0.0
 40
0.1249999999999973
  0
LINE
  5
1FB
  8
0
  6
CONTINUOUS
 62
     7
 10
2.2558902974
 20
6.0193859259
 30
0.0
 11
2.2558902974
 21
5.8943859259
 31
0.0
  0
LINE
  5
1FC
  8
0
  6
CONTINUOUS
 62
     7
 10
2.2558902974
 20
5.8943859259
 30
0.0
 11
2.5058902974
 21
5.8943859259
 31
0.0
  0
LINE
  5
1FD
  8
0
  6
CONTINUOUS
 62
     7
 10
2.5058902974
 20
5.8943859259
 30
0.0
 11
2.5058902974
 21
6.0193859259
 31
0.0
  0
LINE
  5
1FE
  8
0
  6
CONTINUOUS
 62
     7
 10
2.5058902974
 20
6.0193859259
 30
0.0
 11
2.2558902974
 21
6.0193859259
 31
0.0
  0
LINE
  5
1FF
  8
0
  6
CONTINUOUS
 62
     7
 10
2.5062252599
 20
2.2693859259
 30
0.0
 11
2.2562252599
 21
2.2693859259
 31
0.0
  0
LINE
  5
200
  8
0
  6
CONTINUOUS
 62
     7
 10
2.2562252599
 20
2.2693859259
 30
0.0
 11
2.2562252599
 21
2.1443859259
 31
0.0
  0
LINE
  5
201
  8
0
  6
CONTINUOUS
 62
     7
 10
1.8812252599
 20
2.1443859259
 30
0.0
 11
2.2562252599
 21
2.1443859259
 31
0.0
  0
LINE
  5
202
  8
0
  6
CONTINUOUS
 62
     7
 10
1.8812252599
 20
8.1443859259
 30
0.0
 11
1.8812252599
 21
2.1443859259
 31
0.0
  0
LINE
  5
203
  8
0
  6
CONTINUOUS
 62
     7
 10
2.5062252599
 20
2.1443859259
 30
0.0
 11
2.8812252599
 21
2.1443859259
 31
0.0
  0
LINE
  5
204
  8
0
  6
CONTINUOUS
 62
     7
 10
2.5062252599
 20
2.1443859259
 30
0.0
 11
2.5062252599
 21
2.2693859259
 31
0.0
  0
LINE
  5
205
  8
0
  6
CONTINUOUS
 62
     7
 10
2.8812252599
 20
8.1443859259
 30
0.0
 11
1.8812252599
 21
8.1443859259
 31
0.0
  0
LINE
  5
206
  8
0
  6
CONTINUOUS
 62
     7
 10
2.8812252599
 20
2.1443859259
 30
0.0
 11
2.8812252599
 21
8.1443859259
 31
0.0
  0
CIRCLE
  5
207
  8
0
  6
CONTINUOUS
 62
     7
 10
2.3812252599
 20
7.6443859259
 30
0.0
 40
0.1250000000000062
  0
TEXT
  5
208
  8
0
  6
CONTINUOUS
 62
     7
 10
0.0
 20
0.272535405
 30
0.0
 40
0.14705
  1
SOLIDWORKS Educational Product.
 41
0.6774193548
 11
0.0
 21
0.220575
 31
0.0
 73
     1
  0
TEXT
  5
209
  8
0
  6
CONTINUOUS
 62
     7
 10
0.0
 20
0.051960405
 30
0.0
 40
0.14705
  1
For Instructional Use Only.
 41
0.6611111111
 11
0.0
 21
0.0
 31
0.0
 73
     1
  0
ENDSEC
  0
EOF
